<mxfile host="app.diagrams.net" modified="2024-04-30T11:42:49.000Z" agent="Mozilla/5.0 (Windows NT 10.0; Win64; x64) AppleWebKit/537.36 (KHTML, like Gecko) Chrome/124.0.0.0 Safari/537.36" version="24.2.8" etag="k9bdemM1fUrFilHycK1Z" type="github">
  <diagram name="Page-1" id="NtrXT1jOYVoltdW9ggiG">
    <mxGraphModel>
      <root>
        <mxCell id="0" />
        <mxCell id="1" parent="0" />
      </root>
    </mxGraphModel>
  </diagram>
</mxfile>
